<svg width="32" height="32" viewBox="0 0 32 32" fill="none" xmlns="http://www.w3.org/2000/svg">
<path d="M16 2.66669C8.6362 2.66669 2.66666 8.63622 2.66666 16C2.66666 23.3638 8.6362 29.3334 16 29.3334C23.3637 29.3334 29.3333 23.3638 29.3333 16C29.3333 8.63622 23.3637 2.66669 16 2.66669Z" stroke="#334756" stroke-width="1.5" stroke-linecap="round" stroke-linejoin="round"/>
<path d="M5.69466 24.461C5.69466 24.461 8.66669 20.6667 16 20.6667C23.3333 20.6667 26.3055 24.461 26.3055 24.461" stroke="#334756" stroke-width="1.5" stroke-linecap="round" stroke-linejoin="round"/>
<path d="M16 16C18.2092 16 20 14.2092 20 12C20 9.79087 18.2092 8 16 8C13.7908 8 12 9.79087 12 12C12 14.2092 13.7908 16 16 16Z" stroke="#334756" stroke-width="1.5" stroke-linecap="round" stroke-linejoin="round"/>
</svg>
